<?xml version="1.0" encoding="UTF-8"?>
<svg width="139px" height="25px" viewBox="0 0 139 25" version="1.1" xmlns="http://www.w3.org/2000/svg" xmlns:xlink="http://www.w3.org/1999/xlink">
    <title>39490676-A28D-4911-8AA5-2F1EAE58E873</title>
    <g id="Page-1" stroke="none" stroke-width="1" fill="none" fill-rule="evenodd">
        <g id="02-Login-Activa" transform="translate(-24.000000, -92.000000)">
            <g id="ACTIVA-LOGO-sm" transform="translate(24.000000, 92.000000)">
                <path d="M116.874596,6.77527962 L105.551694,22.286198 C105.012863,23.0297497 104.159559,23.4826524 103.180018,23.4826524 C102.228592,23.4826524 101.345311,23.0297497 100.805921,22.286198 L89.4832061,6.77527962 L87.5533566,6.77527962 L99.1929655,22.7065738 C100.140854,23.967321 101.502641,25 103.180018,25 C104.823136,25 106.2149,23.967321 107.133184,22.7065738 L118.772607,6.77527962 L116.874596,6.77527962" id="Fill-1" fill="#2E97C8"></path>
                <path d="M102.012613,21.3636537 C102.283332,21.7142205 102.701512,21.9453321 103.176294,21.946095 C103.638415,21.9468538 104.047473,21.732291 104.318192,21.3986533 L114.975653,6.77527962 L112.983431,6.77527962 L103.348705,20.2997794 C103.296572,20.3539907 103.241833,20.4021152 103.181135,20.4021152 C103.11932,20.4021152 103.088413,20.3593167 103.060671,20.3216541 L93.3371335,6.74123107 L91.3810312,6.77527962 L102.012613,21.3651754 C102.012613,21.3651754 102.012613,21.3651754 102.012613,21.3636537" id="Fill-2" fill="#2E97C8"></path>
                <path d="M127.351826,9.05653199 C126.432983,7.79711634 125.040848,6.76253519 123.396054,6.76253519 C121.717559,6.76253519 120.35689,7.79711634 119.407139,9.05653199 L107.75971,24.9840219 L109.657535,24.9840219 L120.989001,9.47671764 C121.527646,8.73392681 122.381509,8.28121433 123.364401,8.28121433 C124.312662,8.28121433 125.199667,8.73392681 125.73794,9.47671764 L137.068102,24.9840219 L139,24.9840219 L127.351826,9.05653199" id="Fill-3" fill="#2E97C8"></path>
                <polyline id="Fill-4" fill="#2E97C8" points="115.197218 20.009701 111.557409 24.9840219 113.549818 24.9840219 116.019988 21.5593852 130.739164 21.5593852 133.206169 24.9840219 135.169533 24.9840219 131.530467 20.009701 115.197218 20.009701"></polyline>
                <path d="M119.312183,16.9067184 L123.224015,11.4155824 L123.225318,11.4155824 C123.250268,11.3623221 123.302214,11.3248497 123.364029,11.3248497 C123.422865,11.3248497 123.476115,11.3623221 123.500506,11.4155824 L123.500506,11.4146314 L127.414758,16.9067184 L119.312183,16.9067184 Z M124.486191,10.3345888 C124.226084,10.0047554 123.824475,9.78676862 123.367194,9.78599528 C122.909728,9.78410561 122.507373,9.99980978 122.246709,10.3271704 L116.305788,18.4586852 L130.422642,18.4586852 L124.486191,10.3334475 L124.486191,10.3345888 L124.486191,10.3345888 Z" id="Fill-5" fill="#2E97C8"></path>
                <path d="M19.4912016,9.07536331 C18.577758,7.81727916 17.1913943,6.78479038 15.5553511,6.78479038 C13.8863523,6.78479038 12.5327579,7.81727916 11.587476,9.07536331 L0,24.9832611 L1.88870181,24.9832611 L13.1613321,9.49440767 C13.6969981,8.75275812 14.5473235,8.30175759 15.5236989,8.30175759 C16.4686084,8.30175759 17.350586,8.75275812 17.8855071,9.49440767 L29.1581375,24.9832611 L31.078119,24.9832611 L19.4912016,9.07536331" id="Fill-7" fill="#2E97C8"></path>
                <polyline id="Fill-9" fill="#2E97C8" points="7.39933936 20.0142661 3.77814837 24.9832611 5.7618066 24.9832611 8.21968835 21.5631895 22.859734 21.5631895 25.3166848 24.9832611 27.2679461 24.9832611 23.6467552 20.0142661 7.39933936 20.0142661"></polyline>
                <path d="M11.4936368,16.9164194 L15.3851743,11.4323214 L15.3851743,11.4332725 C15.4097512,11.3784905 15.4602085,11.3406376 15.5236989,11.3406376 C15.5823485,11.3406376 15.6344814,11.3784905 15.6590584,11.4323214 C15.6596169,11.4323214 15.6596169,11.4315605 15.6596169,11.4307997 L19.5528301,16.9164194 L11.4936368,16.9164194 Z M16.6408333,10.3515179 C16.3818443,10.022065 15.9809792,9.80521951 15.5266779,9.80407015 C15.0710733,9.80255649 14.671884,10.0163585 14.4115917,10.3450506 L8.50120621,18.465533 L22.5456331,18.465533 L16.6408333,10.3507571 C16.6408333,10.3515179 16.6408333,10.3515179 16.6408333,10.3515179 L16.6408333,10.3515179 Z" id="Fill-10" fill="#2E97C8"></path>
                <path d="M35.2243632,6.78859469 C32.1442376,6.78859469 29.6416705,9.35345811 29.6416705,12.507989 L29.6416705,19.2134596 C29.6416705,22.3679906 32.1442376,24.9311421 35.2243632,24.9311421 L54.5412918,24.9311421 L54.5412918,23.3544472 L35.2243632,23.3544472 C32.9789231,23.3544472 31.183502,21.5125923 31.183502,19.2134596 L31.183502,12.507989 C31.183502,10.2067641 32.9789231,8.36681123 35.2243632,8.36681123 L54.5412918,8.36681123 L54.5412918,6.78859469 L35.2243632,6.78859469" id="Fill-11" fill="#DA362C"></path>
                <path d="M34.2617657,12.5648634 C34.2617657,12.0052499 34.6918625,11.5491136 35.2312522,11.5222932 L54.5412918,11.5222932 L54.5412918,9.94388648 L35.2662557,9.94388648 C33.8627626,9.94578863 32.7262646,11.1118086 32.7262646,12.5507875 L32.7214237,12.5507875 L32.7214237,19.1693297 L32.7229132,19.1693297 C32.7262646,20.6058358 33.8627626,21.7699536 35.2677452,21.7699536 C35.2677452,21.7716655 35.2677452,21.7739481 35.2677452,21.7762307 L54.5412918,21.7762307 L54.5412918,20.1995359 L35.2791028,20.1995359 C34.7164394,20.1957316 34.2617657,19.7295138 34.2617657,19.153732 L34.2617657,12.5648634" id="Fill-12" fill="#DA362C"></path>
                <path d="M57.6651718,19.2446549 L57.6651718,0 L56.1101208,0 L56.1101208,19.2446549 C56.1101208,22.4174465 58.6365201,24.9969566 61.7442017,24.9969566 L81.239127,24.9969566 L81.239127,23.4097999 L61.7442017,23.4097999 C59.478467,23.4097999 57.6651718,21.5582439 57.6651718,19.2446549" id="Fill-14" fill="#EC9138"></path>
                <path d="M60.7778805,12.5587765 C60.7786252,11.9835654 61.2262237,11.5179183 61.7831152,11.5021304 L78.759275,11.5021304 L78.759275,9.91116944 L61.7860942,9.91116944 C60.3701264,9.91421289 59.2220847,11.0903142 59.2220847,12.5412767 L59.2213399,12.5412767 L59.2213399,19.2418017 C59.2284151,20.6663243 60.3442462,21.8218824 61.7311685,21.8551701 L81.256815,21.8551701 L81.256815,20.2619265 L61.8088093,20.2619265 C61.2416774,20.2611656 60.7827214,19.795899 60.7778805,19.2172639 L60.7778805,12.5587765" id="Fill-15" fill="#EC9138"></path>
                <path d="M61.8088093,6.74979076 L61.8088093,6.74979076 C61.2416774,6.74979076 60.7827214,6.28433387 60.7778805,5.70855208 L60.7778805,0 L59.2213399,0 L59.2213399,5.71920414 L59.2220847,5.71920414 C59.2250637,7.16160694 60.3684507,8.33143118 61.7801362,8.33827893 L78.759275,8.33827893 L78.759275,6.74979076 L61.8088093,6.74979076" id="Fill-16" fill="#EC9138"></path>
                <path d="M86.0150626,24.9754622 L87.5889187,24.9754622 L87.5889187,6.75930153 L86.0150626,6.75930153 L86.0150626,24.9754622 Z M86.0150626,4.77973066 L87.5889187,4.77973066 L87.5889187,0.0272007913 L86.0150626,0.0272007913 L86.0150626,4.77973066 Z M82.869957,24.9754622 L84.4438131,24.9754622 L84.4438131,6.75930153 L82.869957,6.75930153 L82.869957,24.9754622 Z M82.869957,4.77973066 L84.4438131,4.77973066 L84.4438131,0.0272007913 L82.869957,0.0272007913 L82.869957,4.77973066 Z" id="Fill-18" fill="#08A755"></path>
            </g>
        </g>
    </g>
</svg>